# xmcd
# 
# Track frame offsets:
#     150
#     1291
#     21394
#     30949
#     49618
#     62742
#     80876
#     95687
#     116457
#     126893
#     149791
#     166205
#     177621
#     197882
#     216728
#     234956
#     249456
#     266573
#     280199
#     290513
#     315158
#     328052
#     342554
# 
# Disc length: 4782
# 
# Revision: 8
# Processed by: cddbd v1.5.2PL0 Copyright (c) Steve Scherf et al.
# Submitted via: fre:ac v1.0.31
# 
DISCID=6112ac17
DTITLE=New orleans - Doctors, Professors, Kings and Queens: The Big Ol' Box of New Orleans Disc 1
DYEAR=2004
DGENRE=Jazz
TTITLE0=Welcome To New Orleans
TTITLE1=Drop Me Off In New Orleans
TTITLE2=I'm Walkin'
TTITLE3=Iko Iko
TTITLE4=Potato Head Blues
TTITLE5=My Darlin' New Orleans
TTITLE6=Para Donde Vas (Where Are You Going)
TTITLE7=Meet The Boyz On The Battlefront
TTITLE8=Ain't Got No Home
TTITLE9=Feel Like Funkin' It Up
TTITLE10=Zydeco Gris-Gris
TTITLE11=Mother-In-Law
TTITLE12=That's Enough Of That Stuff
TTITLE13=Confidential
TTITLE14=Hey Pocky A-Way
TTITLE15=I Thought I Heard Buddy Bolden Say
TTITLE16=Foot Of Canal Street
TTITLE17=Down In Honky Tonk Town
TTITLE18=Rocking Pneumonia And The Boogie Woogie Flu
TTITLE19=More Hipper
TTITLE20=Release Me
TTITLE21=Preachin' Blues
TTITLE22=Jambalaya
EXTD=
EXTT0=GENRE: Spoken
EXTT1=GENRE: New Orleans R&B\nYEAR: 2001
EXTT2=GENRE: New Orleans R&B\nYEAR: 1957
EXTT3=GENRE: New Orleans R&B\nYEAR: 1972
EXTT4=GENRE: New Orleans Jazz\nYEAR: 1927
EXTT5=GENRE: New Orleans R&B\nYEAR: 1981
EXTT6=GENRE: Tex-Mex\nYEAR: 1993
EXTT7=GENRE: New Orleans R&B\nYEAR: 2003
EXTT8=GENRE: New Orleans R&B\nYEAR: 1956
EXTT9=GENRE: New Orleans Brass Bands\nYEAR: 1989
EXTT10=GENRE: Cajun\nYEAR: 1987
EXTT11=GENRE: New Orleans R&B\nYEAR: 1961
EXTT12=GENRE: New Orleans R&B\nYEAR: 1985
EXTT13=GENRE: Pop/Rock\nYEAR: 1989
EXTT14=GENRE: Funk\nYEAR: 1974
EXTT15=GENRE: New Orleans Jazz\nYEAR: 1939
EXTT16=GENRE: New Orleans R&B
EXTT17=GENRE: New Orleans Jazz\nYEAR: 2002
EXTT18=GENRE: New Orleans R&B\nYEAR: 1957
EXTT19=GENRE: Funk\nYEAR: 2002
EXTT20=GENRE: Soul\nYEAR: 1969
EXTT21=GENRE: Swing\nYEAR: 1940
EXTT22=GENRE: Zydeco\nYEAR: 1983
PLAYORDER=
